<svg xmlns="http://www.w3.org/2000/svg" viewBox="230 110 624 850" width="1080" height="1080">
<path d="M 825 473 L 760 473 L 690 475 L 685 477 L 675 476 L 625 481 L 545 496 L 540 499 L 525 502 L 499 512 L 492 513 L 459 527 L 416 550 L 381 576 L 347 608 L 332 625 L 325 637 L 320 641 L 293 690 L 281 721 L 270 761 L 262 817 L 261 935 L 294 937 L 437 936 L 439 829 L 444 794 L 449 777 L 459 754 L 473 732 L 502 706 L 528 690 L 540 686 L 545 682 L 549 682 L 571 673 L 583 671 L 588 668 L 645 657 L 717 651 L 828 650 Z" fill="currentColor"/>
<path d="M 828 134 L 368 136 L 334 138 L 256 138 L 257 466 L 433 465 L 433 318 L 437 314 L 830 310 L 830 180 Z" fill="currentColor"/>
</svg>
